<mxfile host="app.diagrams.net" modified="2024-06-02T11:07:16.447Z" agent="Mozilla/5.0 (Windows NT 10.0; Win64; x64) AppleWebKit/537.36 (KHTML, like Gecko) Chrome/122.0.0.0 YaBrowser/24.4.0.0 Safari/537.36" etag="1_krM066l-8EnTOerJSL" version="24.4.10" type="device">
  <diagram name="Страница — 1" id="6w868Ozg0awSWYet2iVR">
    <mxGraphModel dx="292" dy="508" grid="1" gridSize="10" guides="1" tooltips="1" connect="1" arrows="1" fold="1" page="1" pageScale="1" pageWidth="827" pageHeight="1169" math="0" shadow="0">
      <root>
        <mxCell id="0" />
        <mxCell id="1" parent="0" />
        <mxCell id="K3DojPv9tKe9DYwQcwSV-1" value="Данные о вершинах" style="rounded=1;whiteSpace=wrap;html=1;" vertex="1" parent="1">
          <mxGeometry x="180" y="320" width="120" height="40" as="geometry" />
        </mxCell>
        <mxCell id="K3DojPv9tKe9DYwQcwSV-2" value="" style="whiteSpace=wrap;html=1;aspect=fixed;" vertex="1" parent="1">
          <mxGeometry x="380" y="235" width="210" height="210" as="geometry" />
        </mxCell>
        <mxCell id="K3DojPv9tKe9DYwQcwSV-3" value="Получение идентификатора буфера" style="rounded=1;whiteSpace=wrap;html=1;" vertex="1" parent="1">
          <mxGeometry x="425" y="240" width="120" height="50" as="geometry" />
        </mxCell>
        <mxCell id="K3DojPv9tKe9DYwQcwSV-4" value="Привязка к буферу" style="rounded=1;whiteSpace=wrap;html=1;" vertex="1" parent="1">
          <mxGeometry x="425" y="327.5" width="120" height="25" as="geometry" />
        </mxCell>
        <mxCell id="K3DojPv9tKe9DYwQcwSV-5" value="Хранение на GPU" style="shape=cylinder3;whiteSpace=wrap;html=1;boundedLbl=1;backgroundOutline=1;size=15;" vertex="1" parent="1">
          <mxGeometry x="455" y="380" width="60" height="60" as="geometry" />
        </mxCell>
        <mxCell id="K3DojPv9tKe9DYwQcwSV-6" value="" style="endArrow=none;html=1;rounded=0;entryX=0.5;entryY=1;entryDx=0;entryDy=0;" edge="1" parent="1" source="K3DojPv9tKe9DYwQcwSV-4" target="K3DojPv9tKe9DYwQcwSV-3">
          <mxGeometry width="50" height="50" relative="1" as="geometry">
            <mxPoint x="450" y="390" as="sourcePoint" />
            <mxPoint x="500" y="340" as="targetPoint" />
          </mxGeometry>
        </mxCell>
        <mxCell id="K3DojPv9tKe9DYwQcwSV-7" value="" style="endArrow=none;html=1;rounded=0;entryX=0.5;entryY=1;entryDx=0;entryDy=0;" edge="1" parent="1" source="K3DojPv9tKe9DYwQcwSV-5" target="K3DojPv9tKe9DYwQcwSV-4">
          <mxGeometry width="50" height="50" relative="1" as="geometry">
            <mxPoint x="544.43" y="408" as="sourcePoint" />
            <mxPoint x="544.43" y="370" as="targetPoint" />
          </mxGeometry>
        </mxCell>
        <mxCell id="K3DojPv9tKe9DYwQcwSV-8" value="" style="endArrow=classic;html=1;rounded=0;entryX=0;entryY=0.5;entryDx=0;entryDy=0;exitX=1;exitY=0.5;exitDx=0;exitDy=0;" edge="1" parent="1" source="K3DojPv9tKe9DYwQcwSV-1" target="K3DojPv9tKe9DYwQcwSV-2">
          <mxGeometry width="50" height="50" relative="1" as="geometry">
            <mxPoint x="350" y="400" as="sourcePoint" />
            <mxPoint x="400" y="350" as="targetPoint" />
          </mxGeometry>
        </mxCell>
        <mxCell id="K3DojPv9tKe9DYwQcwSV-9" value="Создание VBO(Один раз)" style="text;html=1;align=center;verticalAlign=middle;resizable=0;points=[];autosize=1;strokeColor=none;fillColor=none;" vertex="1" parent="1">
          <mxGeometry x="400" y="200" width="170" height="30" as="geometry" />
        </mxCell>
        <mxCell id="K3DojPv9tKe9DYwQcwSV-10" value="" style="rounded=0;whiteSpace=wrap;html=1;" vertex="1" parent="1">
          <mxGeometry x="680" y="225" width="140" height="230" as="geometry" />
        </mxCell>
        <mxCell id="K3DojPv9tKe9DYwQcwSV-11" value="Получение массива" style="rounded=1;whiteSpace=wrap;html=1;" vertex="1" parent="1">
          <mxGeometry x="690" y="235" width="120" height="25" as="geometry" />
        </mxCell>
        <mxCell id="K3DojPv9tKe9DYwQcwSV-12" value="Привязка буфера" style="rounded=1;whiteSpace=wrap;html=1;" vertex="1" parent="1">
          <mxGeometry x="690" y="275" width="120" height="25" as="geometry" />
        </mxCell>
        <mxCell id="K3DojPv9tKe9DYwQcwSV-13" value="Инициализация точек" style="rounded=1;whiteSpace=wrap;html=1;" vertex="1" parent="1">
          <mxGeometry x="690" y="315" width="120" height="40" as="geometry" />
        </mxCell>
        <mxCell id="K3DojPv9tKe9DYwQcwSV-14" value="Отрисовка" style="rounded=1;whiteSpace=wrap;html=1;" vertex="1" parent="1">
          <mxGeometry x="690" y="375" width="120" height="25" as="geometry" />
        </mxCell>
        <mxCell id="K3DojPv9tKe9DYwQcwSV-15" value="Очистка массива" style="rounded=1;whiteSpace=wrap;html=1;" vertex="1" parent="1">
          <mxGeometry x="690" y="415" width="120" height="25" as="geometry" />
        </mxCell>
        <mxCell id="K3DojPv9tKe9DYwQcwSV-16" value="" style="endArrow=none;html=1;rounded=0;entryX=0.5;entryY=1;entryDx=0;entryDy=0;exitX=0.5;exitY=0;exitDx=0;exitDy=0;" edge="1" parent="1" source="K3DojPv9tKe9DYwQcwSV-12" target="K3DojPv9tKe9DYwQcwSV-11">
          <mxGeometry width="50" height="50" relative="1" as="geometry">
            <mxPoint x="720" y="320" as="sourcePoint" />
            <mxPoint x="770" y="270" as="targetPoint" />
          </mxGeometry>
        </mxCell>
        <mxCell id="K3DojPv9tKe9DYwQcwSV-17" value="" style="endArrow=none;html=1;rounded=0;entryX=0.5;entryY=1;entryDx=0;entryDy=0;exitX=0.5;exitY=0;exitDx=0;exitDy=0;" edge="1" parent="1">
          <mxGeometry width="50" height="50" relative="1" as="geometry">
            <mxPoint x="749.83" y="315" as="sourcePoint" />
            <mxPoint x="749.83" y="300" as="targetPoint" />
          </mxGeometry>
        </mxCell>
        <mxCell id="K3DojPv9tKe9DYwQcwSV-18" value="" style="endArrow=none;html=1;rounded=0;entryX=0.5;entryY=1;entryDx=0;entryDy=0;exitX=0.5;exitY=0;exitDx=0;exitDy=0;" edge="1" parent="1" source="K3DojPv9tKe9DYwQcwSV-14">
          <mxGeometry width="50" height="50" relative="1" as="geometry">
            <mxPoint x="749.83" y="370" as="sourcePoint" />
            <mxPoint x="749.83" y="355" as="targetPoint" />
          </mxGeometry>
        </mxCell>
        <mxCell id="K3DojPv9tKe9DYwQcwSV-19" value="" style="endArrow=none;html=1;rounded=0;entryX=0.5;entryY=1;entryDx=0;entryDy=0;exitX=0.5;exitY=0;exitDx=0;exitDy=0;" edge="1" parent="1">
          <mxGeometry width="50" height="50" relative="1" as="geometry">
            <mxPoint x="749.83" y="415" as="sourcePoint" />
            <mxPoint x="749.83" y="400" as="targetPoint" />
          </mxGeometry>
        </mxCell>
        <mxCell id="K3DojPv9tKe9DYwQcwSV-20" value="" style="endArrow=classic;startArrow=classic;html=1;rounded=0;entryX=0;entryY=0.5;entryDx=0;entryDy=0;exitX=1;exitY=0.5;exitDx=0;exitDy=0;exitPerimeter=0;dashed=1;" edge="1" parent="1" source="K3DojPv9tKe9DYwQcwSV-5" target="K3DojPv9tKe9DYwQcwSV-12">
          <mxGeometry width="50" height="50" relative="1" as="geometry">
            <mxPoint x="590" y="425" as="sourcePoint" />
            <mxPoint x="640" y="375" as="targetPoint" />
          </mxGeometry>
        </mxCell>
        <mxCell id="K3DojPv9tKe9DYwQcwSV-21" value="Отрисовка VBO(Много раз)" style="text;html=1;align=center;verticalAlign=middle;resizable=0;points=[];autosize=1;strokeColor=none;fillColor=none;" vertex="1" parent="1">
          <mxGeometry x="660" y="195" width="180" height="30" as="geometry" />
        </mxCell>
      </root>
    </mxGraphModel>
  </diagram>
</mxfile>
